<?xml version="1.0" standalone="no"?><!DOCTYPE svg PUBLIC "-//W3C//DTD SVG 1.1//EN" "http://www.w3.org/Graphics/SVG/1.1/DTD/svg11.dtd"><svg t="1611275328008" class="icon" viewBox="0 0 1024 1024" version="1.1" xmlns="http://www.w3.org/2000/svg" p-id="2048" xmlns:xlink="http://www.w3.org/1999/xlink" width="64" height="64"><defs><style type="text/css"></style></defs><path d="M512 0C229.7 0 0 229.7 0 512s229.7 512 512 512 512-229.7 512-512S794.3 0 512 0z m0 979.5C254.2 979.5 44.5 769.8 44.5 512S254.2 44.5 512 44.5 979.5 254.2 979.5 512 769.8 979.5 512 979.5z" fill="#ffffff" p-id="2049"></path><path d="M853.1 454.2L549.3 278.8c-20.9-12.1-45.9-12.1-66.8 0s-33.4 33.7-33.4 57.8v38.6l-167-96.4c-20.9-12.1-45.9-12.1-66.8 0s-33.4 33.7-33.4 57.8v350.7c0 24.1 12.5 45.8 33.4 57.8 10.5 6 21.9 9.1 33.4 9.1s22.9-3 33.4-9.1l167-96.4v38.6c0 24.1 12.5 45.8 33.4 57.8 10.5 6 21.9 9.1 33.4 9.1s22.9-3 33.4-9.1L853 569.7c20.9-12.1 33.4-33.7 33.4-57.8s-12.4-45.7-33.3-57.7zM260 706.6c-10.1 5.8-18.9 1.9-22.3 0-3.3-1.9-11.1-7.7-11.1-19.3V336.6c0-11.6 7.8-17.3 11.1-19.3 3.4-1.9 12.2-5.8 22.3 0L460.3 433l103.4 59.7c10 5.8 11.1 15.4 11.1 19.3 0 3.9-1.1 13.5-11.1 19.3L460.3 591 260 706.6z m570.8-175.3L527.1 706.6c-10.1 5.8-18.9 1.9-22.3 0-3.3-1.9-11.1-7.7-11.1-19.3V623l92.3-53.3c20.9-12.1 33.4-33.7 33.4-57.8s-12.5-45.8-33.4-57.8l-92.3-53.3v-64.3c0-11.6 7.8-17.3 11.1-19.3 3.3-1.9 12.2-5.8 22.3 0l303.7 175.4c10 5.8 11.1 15.4 11.1 19.3 0.1 4-1 13.6-11.1 19.4z" fill="#ffffff" p-id="2050"></path></svg>