<?xml version="1.0" standalone="no"?><!DOCTYPE svg PUBLIC "-//W3C//DTD SVG 1.1//EN" "http://www.w3.org/Graphics/SVG/1.1/DTD/svg11.dtd"><svg t="1611275219997" class="icon" viewBox="0 0 1024 1024" version="1.1" xmlns="http://www.w3.org/2000/svg" p-id="3829" width="64" height="64" xmlns:xlink="http://www.w3.org/1999/xlink"><defs><style type="text/css"></style></defs><path d="M512 1024A512 512 0 1 1 1024 512 512.910222 512.910222 0 0 1 512 1024z m0-955.733333A443.733333 443.733333 0 1 0 955.733333 512a444.188444 444.188444 0 0 0-443.733333-443.733333z" fill="#ffffff" p-id="3830"></path><path d="M420.977778 679.025778a34.133333 34.133333 0 0 1-34.133334-34.133334V379.107556a34.133333 34.133333 0 1 1 68.266667 0v265.784888a34.133333 34.133333 0 0 1-34.133333 34.133334zM603.022222 679.025778a34.133333 34.133333 0 0 1-34.133333-34.133334V379.107556a34.133333 34.133333 0 1 1 68.266667 0v265.784888a34.133333 34.133333 0 0 1-34.133334 34.133334z" fill="#ffffff" p-id="3831"></path></svg>